# xmcd
#
# Track frame offsets:
#	150
#	10044
#	20640
#	31468
#	43360
#	56384
#	66677
#	78592
#	89728
#	99573
#	110636
#	120585
#	132188
#	144095
#	156073
#	167553
#	176859
#	188598
#	199326
#	211005
#	222835
#	234866
#	248480
#	259407
#	270229
#	282423
#
# Disc length: 3912 seconds
#
# Revision: 2
# Processed by: cddbd v1.5.2PL0 Copyright (c) Steve Scherf et al.
# Submitted via: EZCDAudioConverter 6.0.5.1
#
DISCID=750f461a
DTITLE=Eddy Arnold - The Rock And Roll Years: The Love Collection Box  [CD1
DTITLE=)
DYEAR=2009
DGENRE=Country
TTITLE0=Buddy Holly, Norman Petty, Jerry Allison, Tommy Allsup, George Atwood 
TTITLE0=/ Heartbeat
TTITLE1=Marty Wilde - A Teenager In Love
TTITLE2=Tommy Steele and the Steelmen - Singing The Blues
TTITLE3=Tommy Edwards - It's All In The Game
TTITLE4=Shirley Bassey - As I Love You
TTITLE5=Frankie Vaughan - Kisses Sweeter Than Wine
TTITLE6=Billy Vaughn, Pat Boone, Randy Wood - It's Too Soon To Know
TTITLE7=Anthony Newley - Why
TTITLE8=Mark Wynter - Venus In Blue Jeans
TTITLE9=Jimmy Justice - When My Little Girl Is Smiling
TTITLE10=Joe Brown And The Bruvvers - Your Tender Look
TTITLE11=Emile Ford and The Checkmates - On A Slow Boat To China
TTITLE12=Brook Benton - Kiddio
TTITLE13=Kenny Ball - So Do I
TTITLE14=Eddy Arnold - My Heart Has A Mind Of It's Own
TTITLE15=Burl Ives - A Little Bitty Tear
TTITLE16=Karl Denver - Mexicali Rose
TTITLE17=Leroy Van Dyke - Walk On By
TTITLE18=Bobby Helms - Jacqueline
TTITLE19=Petula Clark - With All My Heart
TTITLE20=The Crickets - More Than I Can Say
TTITLE21=Owen Bradley, Patsy Cline, ... - She's Got You
TTITLE22=Eden Kane - I Don't Know Why
TTITLE23=Richard Chamberlain - Love Me Tender
TTITLE24=Brian Hyland, Gary Geld, Peter Udell - Sealed With A Kiss
TTITLE25=Billy Fury, Dick Rowe, Mike Smith - Halfway To Paradise
EXTD=
EXTT0=
EXTT1=
EXTT2=
EXTT3=
EXTT4=
EXTT5=
EXTT6=
EXTT7=
EXTT8=
EXTT9=
EXTT10=
EXTT11=
EXTT12=
EXTT13=
EXTT14=
EXTT15=
EXTT16=
EXTT17=
EXTT18=
EXTT19=
EXTT20=
EXTT21=
EXTT22=
EXTT23=
EXTT24=
EXTT25=
PLAYORDER=
